<mxfile host="app.diagrams.net" agent="Mozilla/5.0 (Windows NT 10.0; Win64; x64) AppleWebKit/537.36 (KHTML, like Gecko) Chrome/135.0.0.0 Safari/537.36" version="26.2.14">
  <diagram name="Page-1" id="2a216829-ef6e-dabb-86c1-c78162f3ba2b">
    <mxGraphModel dx="6732" dy="2248" grid="1" gridSize="10" guides="1" tooltips="1" connect="1" arrows="1" fold="1" page="1" pageScale="1" pageWidth="850" pageHeight="1100" background="none" math="0" shadow="0">
      <root>
        <mxCell id="0" />
        <mxCell id="1" parent="0" />
        <mxCell id="nAr13E7f8VJQAf8utLOB-1" value="" style="rounded=0;whiteSpace=wrap;html=1;fillColor=#F5F5F5;" vertex="1" parent="1">
          <mxGeometry x="-1590" y="120" width="2340" height="320" as="geometry" />
        </mxCell>
        <mxCell id="nAr13E7f8VJQAf8utLOB-3" value="" style="rounded=0;whiteSpace=wrap;html=1;fillColor=#EDEDED;" vertex="1" parent="1">
          <mxGeometry x="-1590" y="440" width="2340" height="320" as="geometry" />
        </mxCell>
        <mxCell id="nAr13E7f8VJQAf8utLOB-4" value="" style="rounded=0;whiteSpace=wrap;html=1;fillColor=#F5F5F5;" vertex="1" parent="1">
          <mxGeometry x="-1590" y="760" width="2340" height="320" as="geometry" />
        </mxCell>
        <mxCell id="nAr13E7f8VJQAf8utLOB-5" value="" style="rounded=0;whiteSpace=wrap;html=1;fillColor=#EDEDED;" vertex="1" parent="1">
          <mxGeometry x="-1590" y="1080" width="2340" height="320" as="geometry" />
        </mxCell>
        <mxCell id="nAr13E7f8VJQAf8utLOB-9" value="&lt;font style=&quot;font-size: 36px;&quot;&gt;Student&lt;/font&gt;" style="rounded=0;whiteSpace=wrap;html=1;rotation=-90;fillColor=#EDEDED;" vertex="1" parent="1">
          <mxGeometry x="-1655" y="185" width="320" height="190" as="geometry" />
        </mxCell>
        <mxCell id="nAr13E7f8VJQAf8utLOB-10" value="&lt;font style=&quot;font-size: 36px;&quot;&gt;Admissions Office&lt;/font&gt;" style="rounded=0;whiteSpace=wrap;html=1;rotation=-90;fillColor=#DEDEDE;" vertex="1" parent="1">
          <mxGeometry x="-1655" y="505" width="320" height="190" as="geometry" />
        </mxCell>
        <mxCell id="nAr13E7f8VJQAf8utLOB-11" value="&lt;font style=&quot;font-size: 36px;&quot;&gt;Finance Dept.&lt;/font&gt;" style="rounded=0;whiteSpace=wrap;html=1;rotation=-90;fillColor=#EDEDED;" vertex="1" parent="1">
          <mxGeometry x="-1655" y="825" width="320" height="190" as="geometry" />
        </mxCell>
        <mxCell id="nAr13E7f8VJQAf8utLOB-12" value="&lt;font style=&quot;font-size: 36px;&quot;&gt;Academic Dept.&lt;/font&gt;" style="rounded=0;whiteSpace=wrap;html=1;rotation=-90;fillColor=#DEDEDE;" vertex="1" parent="1">
          <mxGeometry x="-1655" y="1145" width="320" height="190" as="geometry" />
        </mxCell>
        <mxCell id="nAr13E7f8VJQAf8utLOB-42" value="" style="edgeStyle=orthogonalEdgeStyle;rounded=0;orthogonalLoop=1;jettySize=auto;html=1;" edge="1" parent="1" source="nAr13E7f8VJQAf8utLOB-18" target="nAr13E7f8VJQAf8utLOB-22">
          <mxGeometry relative="1" as="geometry" />
        </mxCell>
        <mxCell id="nAr13E7f8VJQAf8utLOB-18" value="&lt;font style=&quot;font-size: 14px;&quot;&gt;Submit Application&lt;/font&gt;" style="shape=ext;rounded=1;html=1;whiteSpace=wrap;" vertex="1" parent="1">
          <mxGeometry x="-1160" y="250" width="140" height="70" as="geometry" />
        </mxCell>
        <mxCell id="nAr13E7f8VJQAf8utLOB-46" style="edgeStyle=orthogonalEdgeStyle;rounded=0;orthogonalLoop=1;jettySize=auto;html=1;exitX=1;exitY=0.5;exitDx=0;exitDy=0;" edge="1" parent="1" source="nAr13E7f8VJQAf8utLOB-22" target="nAr13E7f8VJQAf8utLOB-23">
          <mxGeometry relative="1" as="geometry">
            <Array as="points">
              <mxPoint x="-790" y="285" />
              <mxPoint x="-790" y="285" />
            </Array>
          </mxGeometry>
        </mxCell>
        <mxCell id="nAr13E7f8VJQAf8utLOB-22" value="&lt;font style=&quot;font-size: 14px;&quot;&gt;Wait for Processing&lt;/font&gt;" style="shape=ext;rounded=1;html=1;whiteSpace=wrap;" vertex="1" parent="1">
          <mxGeometry x="-970" y="250" width="140" height="70" as="geometry" />
        </mxCell>
        <mxCell id="nAr13E7f8VJQAf8utLOB-45" value="" style="edgeStyle=orthogonalEdgeStyle;rounded=0;orthogonalLoop=1;jettySize=auto;html=1;" edge="1" parent="1" source="nAr13E7f8VJQAf8utLOB-23" target="nAr13E7f8VJQAf8utLOB-28">
          <mxGeometry relative="1" as="geometry">
            <Array as="points">
              <mxPoint x="-660" y="285" />
              <mxPoint x="-660" y="285" />
            </Array>
          </mxGeometry>
        </mxCell>
        <mxCell id="nAr13E7f8VJQAf8utLOB-23" value="" style="ellipse;whiteSpace=wrap;html=1;aspect=fixed;" vertex="1" parent="1">
          <mxGeometry x="-774.37" y="260" width="45" height="45" as="geometry" />
        </mxCell>
        <mxCell id="nAr13E7f8VJQAf8utLOB-47" style="edgeStyle=orthogonalEdgeStyle;rounded=0;orthogonalLoop=1;jettySize=auto;html=1;exitX=1;exitY=0.5;exitDx=0;exitDy=0;" edge="1" parent="1" source="nAr13E7f8VJQAf8utLOB-28" target="nAr13E7f8VJQAf8utLOB-29">
          <mxGeometry relative="1" as="geometry" />
        </mxCell>
        <mxCell id="nAr13E7f8VJQAf8utLOB-28" value="&lt;font style=&quot;font-size: 14px;&quot;&gt;Register for Courses&lt;/font&gt;" style="shape=ext;rounded=1;html=1;whiteSpace=wrap;" vertex="1" parent="1">
          <mxGeometry x="-640" y="245" width="140" height="70" as="geometry" />
        </mxCell>
        <mxCell id="nAr13E7f8VJQAf8utLOB-48" style="edgeStyle=orthogonalEdgeStyle;rounded=0;orthogonalLoop=1;jettySize=auto;html=1;exitX=1;exitY=0.5;exitDx=0;exitDy=0;" edge="1" parent="1" source="nAr13E7f8VJQAf8utLOB-29" target="nAr13E7f8VJQAf8utLOB-30">
          <mxGeometry relative="1" as="geometry" />
        </mxCell>
        <mxCell id="nAr13E7f8VJQAf8utLOB-29" value="&lt;font style=&quot;font-size: 14px;&quot;&gt;Pay Fees&lt;/font&gt;" style="shape=ext;rounded=1;html=1;whiteSpace=wrap;" vertex="1" parent="1">
          <mxGeometry x="-430" y="245" width="140" height="70" as="geometry" />
        </mxCell>
        <mxCell id="nAr13E7f8VJQAf8utLOB-49" style="edgeStyle=orthogonalEdgeStyle;rounded=0;orthogonalLoop=1;jettySize=auto;html=1;exitX=1;exitY=0.5;exitDx=0;exitDy=0;" edge="1" parent="1" source="nAr13E7f8VJQAf8utLOB-30" target="nAr13E7f8VJQAf8utLOB-32">
          <mxGeometry relative="1" as="geometry" />
        </mxCell>
        <mxCell id="nAr13E7f8VJQAf8utLOB-30" value="&lt;font style=&quot;font-size: 14px;&quot;&gt;View Attendance Records&lt;/font&gt;" style="shape=ext;rounded=1;html=1;whiteSpace=wrap;" vertex="1" parent="1">
          <mxGeometry x="-250" y="245" width="140" height="70" as="geometry" />
        </mxCell>
        <mxCell id="nAr13E7f8VJQAf8utLOB-50" style="edgeStyle=orthogonalEdgeStyle;rounded=0;orthogonalLoop=1;jettySize=auto;html=1;exitX=1;exitY=0.5;exitDx=0;exitDy=0;entryX=0;entryY=0.5;entryDx=0;entryDy=0;" edge="1" parent="1" source="nAr13E7f8VJQAf8utLOB-32" target="nAr13E7f8VJQAf8utLOB-33">
          <mxGeometry relative="1" as="geometry" />
        </mxCell>
        <mxCell id="nAr13E7f8VJQAf8utLOB-32" value="&lt;font style=&quot;font-size: 14px;&quot;&gt;Participate in Activities&lt;/font&gt;" style="shape=ext;rounded=1;html=1;whiteSpace=wrap;" vertex="1" parent="1">
          <mxGeometry x="-30" y="245" width="140" height="70" as="geometry" />
        </mxCell>
        <mxCell id="nAr13E7f8VJQAf8utLOB-51" style="edgeStyle=orthogonalEdgeStyle;rounded=0;orthogonalLoop=1;jettySize=auto;html=1;exitX=1;exitY=0.5;exitDx=0;exitDy=0;" edge="1" parent="1" source="nAr13E7f8VJQAf8utLOB-33" target="nAr13E7f8VJQAf8utLOB-34">
          <mxGeometry relative="1" as="geometry" />
        </mxCell>
        <mxCell id="nAr13E7f8VJQAf8utLOB-33" value="&lt;font style=&quot;font-size: 14px;&quot;&gt;Submit Complaint or Request&lt;/font&gt;" style="shape=ext;rounded=1;html=1;whiteSpace=wrap;" vertex="1" parent="1">
          <mxGeometry x="180" y="245" width="140" height="70" as="geometry" />
        </mxCell>
        <mxCell id="nAr13E7f8VJQAf8utLOB-53" style="edgeStyle=orthogonalEdgeStyle;rounded=0;orthogonalLoop=1;jettySize=auto;html=1;exitX=1;exitY=0.5;exitDx=0;exitDy=0;entryX=0;entryY=0.5;entryDx=0;entryDy=0;" edge="1" parent="1" source="nAr13E7f8VJQAf8utLOB-34" target="nAr13E7f8VJQAf8utLOB-35">
          <mxGeometry relative="1" as="geometry" />
        </mxCell>
        <mxCell id="nAr13E7f8VJQAf8utLOB-34" value="&lt;font style=&quot;font-size: 14px;&quot;&gt;View Reports and Documents&lt;/font&gt;" style="shape=ext;rounded=1;html=1;whiteSpace=wrap;" vertex="1" parent="1">
          <mxGeometry x="400" y="245" width="140" height="70" as="geometry" />
        </mxCell>
        <mxCell id="nAr13E7f8VJQAf8utLOB-35" value="" style="ellipse;shape=doubleEllipse;whiteSpace=wrap;html=1;" vertex="1" parent="1">
          <mxGeometry x="630" y="260" width="40" height="40" as="geometry" />
        </mxCell>
        <mxCell id="nAr13E7f8VJQAf8utLOB-36" value="" style="ellipse;whiteSpace=wrap;html=1;aspect=fixed;fillColor=#000000;" vertex="1" parent="1">
          <mxGeometry x="637.5" y="267.5" width="25" height="25" as="geometry" />
        </mxCell>
        <mxCell id="nAr13E7f8VJQAf8utLOB-55" style="edgeStyle=orthogonalEdgeStyle;rounded=0;orthogonalLoop=1;jettySize=auto;html=1;exitX=1;exitY=0.5;exitDx=0;exitDy=0;entryX=0;entryY=0.5;entryDx=0;entryDy=0;" edge="1" parent="1" source="nAr13E7f8VJQAf8utLOB-54" target="nAr13E7f8VJQAf8utLOB-18">
          <mxGeometry relative="1" as="geometry" />
        </mxCell>
        <mxCell id="nAr13E7f8VJQAf8utLOB-54" value="" style="ellipse;shape=doubleEllipse;whiteSpace=wrap;html=1;" vertex="1" parent="1">
          <mxGeometry x="-1275" y="265" width="40" height="40" as="geometry" />
        </mxCell>
        <mxCell id="nAr13E7f8VJQAf8utLOB-57" value="" style="whiteSpace=wrap;html=1;aspect=fixed;" vertex="1" parent="1">
          <mxGeometry x="-766.87" y="267.5" width="30" height="30" as="geometry" />
        </mxCell>
        <mxCell id="nAr13E7f8VJQAf8utLOB-62" value="" style="shape=mxgraph.sysml.x;rotation=45;" vertex="1" parent="1">
          <mxGeometry x="-761.87" y="272.5" width="20" height="20" as="geometry" />
        </mxCell>
        <mxCell id="nAr13E7f8VJQAf8utLOB-128" value="&lt;span style=&quot;font-size: 14px;&quot;&gt;&amp;nbsp;Mobile Access&lt;/span&gt;" style="shape=ext;rounded=1;html=1;whiteSpace=wrap;" vertex="1" parent="1">
          <mxGeometry x="-801.87" y="150" width="100" height="40" as="geometry" />
        </mxCell>
        <mxCell id="nAr13E7f8VJQAf8utLOB-129" value="" style="endArrow=none;dashed=1;html=1;rounded=0;" edge="1" parent="1">
          <mxGeometry width="50" height="50" relative="1" as="geometry">
            <mxPoint x="-714.37" y="130" as="sourcePoint" />
            <mxPoint x="-774.37" y="130" as="targetPoint" />
          </mxGeometry>
        </mxCell>
        <mxCell id="nAr13E7f8VJQAf8utLOB-132" value="" style="endArrow=none;dashed=1;html=1;rounded=0;" edge="1" parent="1">
          <mxGeometry width="50" height="50" relative="1" as="geometry">
            <mxPoint x="-774.37" y="130" as="sourcePoint" />
            <mxPoint x="-774.37" y="150" as="targetPoint" />
          </mxGeometry>
        </mxCell>
        <mxCell id="nAr13E7f8VJQAf8utLOB-200" value="" style="endArrow=none;dashed=1;html=1;rounded=0;" edge="1" parent="1">
          <mxGeometry width="50" height="50" relative="1" as="geometry">
            <mxPoint x="-710" y="130" as="sourcePoint" />
            <mxPoint x="-710" y="150" as="targetPoint" />
          </mxGeometry>
        </mxCell>
        <mxCell id="nAr13E7f8VJQAf8utLOB-208" style="edgeStyle=orthogonalEdgeStyle;rounded=0;orthogonalLoop=1;jettySize=auto;html=1;exitX=1;exitY=0.5;exitDx=0;exitDy=0;" edge="1" parent="1" source="nAr13E7f8VJQAf8utLOB-201" target="nAr13E7f8VJQAf8utLOB-204">
          <mxGeometry relative="1" as="geometry" />
        </mxCell>
        <mxCell id="nAr13E7f8VJQAf8utLOB-210" style="edgeStyle=orthogonalEdgeStyle;rounded=0;orthogonalLoop=1;jettySize=auto;html=1;exitX=0.5;exitY=1;exitDx=0;exitDy=0;entryX=0;entryY=0.5;entryDx=0;entryDy=0;" edge="1" parent="1" source="nAr13E7f8VJQAf8utLOB-201" target="nAr13E7f8VJQAf8utLOB-202">
          <mxGeometry relative="1" as="geometry" />
        </mxCell>
        <mxCell id="nAr13E7f8VJQAf8utLOB-201" value="&lt;font style=&quot;font-size: 14px;&quot;&gt;Receive Application&lt;/font&gt;" style="shape=ext;rounded=1;html=1;whiteSpace=wrap;" vertex="1" parent="1">
          <mxGeometry x="-1160" y="505" width="140" height="70" as="geometry" />
        </mxCell>
        <mxCell id="nAr13E7f8VJQAf8utLOB-274" style="edgeStyle=orthogonalEdgeStyle;rounded=0;orthogonalLoop=1;jettySize=auto;html=1;exitX=1;exitY=0.5;exitDx=0;exitDy=0;entryX=0.25;entryY=1;entryDx=0;entryDy=0;" edge="1" parent="1" source="nAr13E7f8VJQAf8utLOB-202" target="nAr13E7f8VJQAf8utLOB-203">
          <mxGeometry relative="1" as="geometry" />
        </mxCell>
        <mxCell id="nAr13E7f8VJQAf8utLOB-202" value="&lt;font style=&quot;font-size: 14px;&quot;&gt;Request Additional Documents&lt;/font&gt;" style="shape=ext;rounded=1;html=1;whiteSpace=wrap;" vertex="1" parent="1">
          <mxGeometry x="-990" y="640" width="140" height="70" as="geometry" />
        </mxCell>
        <mxCell id="nAr13E7f8VJQAf8utLOB-212" style="edgeStyle=orthogonalEdgeStyle;rounded=0;orthogonalLoop=1;jettySize=auto;html=1;exitX=1;exitY=0.5;exitDx=0;exitDy=0;entryX=0;entryY=0.5;entryDx=0;entryDy=0;" edge="1" parent="1" source="nAr13E7f8VJQAf8utLOB-203" target="nAr13E7f8VJQAf8utLOB-205">
          <mxGeometry relative="1" as="geometry" />
        </mxCell>
        <mxCell id="nAr13E7f8VJQAf8utLOB-203" value="&lt;font style=&quot;font-size: 14px;&quot;&gt;Convert Student ID to Matriculation No.&lt;/font&gt;" style="shape=ext;rounded=1;html=1;whiteSpace=wrap;" vertex="1" parent="1">
          <mxGeometry x="-830" y="505" width="140" height="70" as="geometry" />
        </mxCell>
        <mxCell id="nAr13E7f8VJQAf8utLOB-209" style="edgeStyle=orthogonalEdgeStyle;rounded=0;orthogonalLoop=1;jettySize=auto;html=1;exitX=1;exitY=0.5;exitDx=0;exitDy=0;entryX=0;entryY=0.5;entryDx=0;entryDy=0;" edge="1" parent="1" source="nAr13E7f8VJQAf8utLOB-204" target="nAr13E7f8VJQAf8utLOB-203">
          <mxGeometry relative="1" as="geometry" />
        </mxCell>
        <mxCell id="nAr13E7f8VJQAf8utLOB-293" value="" style="edgeStyle=orthogonalEdgeStyle;rounded=0;orthogonalLoop=1;jettySize=auto;html=1;" edge="1" parent="1" source="nAr13E7f8VJQAf8utLOB-204" target="nAr13E7f8VJQAf8utLOB-202">
          <mxGeometry relative="1" as="geometry" />
        </mxCell>
        <mxCell id="nAr13E7f8VJQAf8utLOB-204" value="Verify?" style="rhombus;whiteSpace=wrap;html=1;" vertex="1" parent="1">
          <mxGeometry x="-960" y="500" width="80" height="80" as="geometry" />
        </mxCell>
        <mxCell id="nAr13E7f8VJQAf8utLOB-213" style="edgeStyle=orthogonalEdgeStyle;rounded=0;orthogonalLoop=1;jettySize=auto;html=1;exitX=1;exitY=0.5;exitDx=0;exitDy=0;" edge="1" parent="1" source="nAr13E7f8VJQAf8utLOB-205" target="nAr13E7f8VJQAf8utLOB-206">
          <mxGeometry relative="1" as="geometry" />
        </mxCell>
        <mxCell id="nAr13E7f8VJQAf8utLOB-205" value="&lt;font style=&quot;font-size: 14px;&quot;&gt;Create Student Profile&lt;/font&gt;" style="shape=ext;rounded=1;html=1;whiteSpace=wrap;" vertex="1" parent="1">
          <mxGeometry x="-640" y="505" width="140" height="70" as="geometry" />
        </mxCell>
        <mxCell id="nAr13E7f8VJQAf8utLOB-214" style="edgeStyle=orthogonalEdgeStyle;rounded=0;orthogonalLoop=1;jettySize=auto;html=1;exitX=1;exitY=0.5;exitDx=0;exitDy=0;" edge="1" parent="1" source="nAr13E7f8VJQAf8utLOB-206" target="nAr13E7f8VJQAf8utLOB-207">
          <mxGeometry relative="1" as="geometry" />
        </mxCell>
        <mxCell id="nAr13E7f8VJQAf8utLOB-206" value="&lt;font style=&quot;font-size: 14px;&quot;&gt;Send Enrollment Notification&amp;nbsp;&lt;/font&gt;" style="shape=ext;rounded=1;html=1;whiteSpace=wrap;" vertex="1" parent="1">
          <mxGeometry x="-420" y="505" width="140" height="70" as="geometry" />
        </mxCell>
        <mxCell id="nAr13E7f8VJQAf8utLOB-207" value="&lt;font style=&quot;font-size: 14px;&quot;&gt;Secure Student Data&lt;/font&gt;" style="shape=ext;rounded=1;html=1;whiteSpace=wrap;" vertex="1" parent="1">
          <mxGeometry x="-200" y="505" width="140" height="70" as="geometry" />
        </mxCell>
        <mxCell id="nAr13E7f8VJQAf8utLOB-222" style="edgeStyle=orthogonalEdgeStyle;rounded=0;orthogonalLoop=1;jettySize=auto;html=1;exitX=1;exitY=0.5;exitDx=0;exitDy=0;entryX=0;entryY=0.5;entryDx=0;entryDy=0;" edge="1" parent="1" source="nAr13E7f8VJQAf8utLOB-215" target="nAr13E7f8VJQAf8utLOB-216">
          <mxGeometry relative="1" as="geometry" />
        </mxCell>
        <mxCell id="nAr13E7f8VJQAf8utLOB-215" value="&lt;font style=&quot;font-size: 14px;&quot;&gt;Process Payment&lt;/font&gt;" style="shape=ext;rounded=1;html=1;whiteSpace=wrap;" vertex="1" parent="1">
          <mxGeometry x="-460" y="860" width="140" height="70" as="geometry" />
        </mxCell>
        <mxCell id="nAr13E7f8VJQAf8utLOB-221" style="edgeStyle=orthogonalEdgeStyle;rounded=0;orthogonalLoop=1;jettySize=auto;html=1;exitX=1;exitY=0.5;exitDx=0;exitDy=0;entryX=0;entryY=0.5;entryDx=0;entryDy=0;" edge="1" parent="1" source="nAr13E7f8VJQAf8utLOB-216" target="nAr13E7f8VJQAf8utLOB-217">
          <mxGeometry relative="1" as="geometry" />
        </mxCell>
        <mxCell id="nAr13E7f8VJQAf8utLOB-223" style="edgeStyle=orthogonalEdgeStyle;rounded=0;orthogonalLoop=1;jettySize=auto;html=1;exitX=0.5;exitY=1;exitDx=0;exitDy=0;entryX=0.5;entryY=0;entryDx=0;entryDy=0;" edge="1" parent="1" source="nAr13E7f8VJQAf8utLOB-216" target="nAr13E7f8VJQAf8utLOB-218">
          <mxGeometry relative="1" as="geometry" />
        </mxCell>
        <mxCell id="nAr13E7f8VJQAf8utLOB-216" value="Verify for Scholarship?" style="rhombus;whiteSpace=wrap;html=1;" vertex="1" parent="1">
          <mxGeometry x="-190" y="855" width="80" height="80" as="geometry" />
        </mxCell>
        <mxCell id="nAr13E7f8VJQAf8utLOB-220" style="edgeStyle=orthogonalEdgeStyle;rounded=0;orthogonalLoop=1;jettySize=auto;html=1;exitX=1;exitY=0.5;exitDx=0;exitDy=0;" edge="1" parent="1" source="nAr13E7f8VJQAf8utLOB-217" target="nAr13E7f8VJQAf8utLOB-219">
          <mxGeometry relative="1" as="geometry" />
        </mxCell>
        <mxCell id="nAr13E7f8VJQAf8utLOB-217" value="&lt;font style=&quot;font-size: 14px;&quot;&gt;Generate Receipt&lt;/font&gt;" style="shape=ext;rounded=1;html=1;whiteSpace=wrap;" vertex="1" parent="1">
          <mxGeometry x="-10" y="860" width="140" height="70" as="geometry" />
        </mxCell>
        <mxCell id="nAr13E7f8VJQAf8utLOB-224" style="edgeStyle=orthogonalEdgeStyle;rounded=0;orthogonalLoop=1;jettySize=auto;html=1;exitX=1;exitY=0.5;exitDx=0;exitDy=0;" edge="1" parent="1" source="nAr13E7f8VJQAf8utLOB-218" target="nAr13E7f8VJQAf8utLOB-217">
          <mxGeometry relative="1" as="geometry" />
        </mxCell>
        <mxCell id="nAr13E7f8VJQAf8utLOB-218" value="&lt;font style=&quot;font-size: 14px;&quot;&gt;Allocate Scholarship&amp;nbsp;&lt;/font&gt;" style="shape=ext;rounded=1;html=1;whiteSpace=wrap;" vertex="1" parent="1">
          <mxGeometry x="-220" y="970" width="140" height="70" as="geometry" />
        </mxCell>
        <mxCell id="nAr13E7f8VJQAf8utLOB-219" value="&lt;font style=&quot;font-size: 14px;&quot;&gt;Generate Financial Reports&lt;/font&gt;" style="shape=ext;rounded=1;html=1;whiteSpace=wrap;" vertex="1" parent="1">
          <mxGeometry x="220" y="860" width="140" height="70" as="geometry" />
        </mxCell>
        <mxCell id="nAr13E7f8VJQAf8utLOB-233" style="edgeStyle=orthogonalEdgeStyle;rounded=0;orthogonalLoop=1;jettySize=auto;html=1;exitX=1;exitY=0.5;exitDx=0;exitDy=0;" edge="1" parent="1" source="nAr13E7f8VJQAf8utLOB-225" target="nAr13E7f8VJQAf8utLOB-226">
          <mxGeometry relative="1" as="geometry" />
        </mxCell>
        <mxCell id="nAr13E7f8VJQAf8utLOB-225" value="&lt;font style=&quot;font-size: 14px;&quot;&gt;Review Registration&lt;/font&gt;" style="shape=ext;rounded=1;html=1;whiteSpace=wrap;" vertex="1" parent="1">
          <mxGeometry x="-650" y="1205" width="140" height="70" as="geometry" />
        </mxCell>
        <mxCell id="nAr13E7f8VJQAf8utLOB-230" style="edgeStyle=orthogonalEdgeStyle;rounded=0;orthogonalLoop=1;jettySize=auto;html=1;exitX=1;exitY=0.5;exitDx=0;exitDy=0;entryX=0;entryY=0.5;entryDx=0;entryDy=0;" edge="1" parent="1" source="nAr13E7f8VJQAf8utLOB-226" target="nAr13E7f8VJQAf8utLOB-227">
          <mxGeometry relative="1" as="geometry" />
        </mxCell>
        <mxCell id="nAr13E7f8VJQAf8utLOB-234" style="edgeStyle=orthogonalEdgeStyle;rounded=0;orthogonalLoop=1;jettySize=auto;html=1;exitX=0.5;exitY=1;exitDx=0;exitDy=0;entryX=0.5;entryY=1;entryDx=0;entryDy=0;" edge="1" parent="1" source="nAr13E7f8VJQAf8utLOB-226" target="nAr13E7f8VJQAf8utLOB-225">
          <mxGeometry relative="1" as="geometry" />
        </mxCell>
        <mxCell id="nAr13E7f8VJQAf8utLOB-226" value="Approve?" style="rhombus;whiteSpace=wrap;html=1;" vertex="1" parent="1">
          <mxGeometry x="-430" y="1200" width="80" height="80" as="geometry" />
        </mxCell>
        <mxCell id="nAr13E7f8VJQAf8utLOB-231" style="edgeStyle=orthogonalEdgeStyle;rounded=0;orthogonalLoop=1;jettySize=auto;html=1;exitX=1;exitY=0.5;exitDx=0;exitDy=0;" edge="1" parent="1" source="nAr13E7f8VJQAf8utLOB-227" target="nAr13E7f8VJQAf8utLOB-228">
          <mxGeometry relative="1" as="geometry" />
        </mxCell>
        <mxCell id="nAr13E7f8VJQAf8utLOB-227" value="&lt;font style=&quot;font-size: 14px;&quot;&gt;Track Student Attendance&lt;/font&gt;" style="shape=ext;rounded=1;html=1;whiteSpace=wrap;" vertex="1" parent="1">
          <mxGeometry x="-260" y="1205" width="140" height="70" as="geometry" />
        </mxCell>
        <mxCell id="nAr13E7f8VJQAf8utLOB-232" style="edgeStyle=orthogonalEdgeStyle;rounded=0;orthogonalLoop=1;jettySize=auto;html=1;exitX=1;exitY=0.5;exitDx=0;exitDy=0;entryX=0;entryY=0.5;entryDx=0;entryDy=0;" edge="1" parent="1" source="nAr13E7f8VJQAf8utLOB-228" target="nAr13E7f8VJQAf8utLOB-229">
          <mxGeometry relative="1" as="geometry" />
        </mxCell>
        <mxCell id="nAr13E7f8VJQAf8utLOB-228" value="&lt;font style=&quot;font-size: 14px;&quot;&gt;Generate Academic Reports&lt;/font&gt;" style="shape=ext;rounded=1;html=1;whiteSpace=wrap;" vertex="1" parent="1">
          <mxGeometry x="-40" y="1205" width="140" height="70" as="geometry" />
        </mxCell>
        <mxCell id="nAr13E7f8VJQAf8utLOB-229" value="&lt;font style=&quot;font-size: 14px;&quot;&gt;Generate Documents&lt;/font&gt;" style="shape=ext;rounded=1;html=1;whiteSpace=wrap;" vertex="1" parent="1">
          <mxGeometry x="170" y="1205" width="140" height="70" as="geometry" />
        </mxCell>
        <mxCell id="nAr13E7f8VJQAf8utLOB-235" value="" style="rounded=0;whiteSpace=wrap;html=1;fillColor=#F7F7F7;" vertex="1" parent="1">
          <mxGeometry x="-1590" y="1400" width="2340" height="320" as="geometry" />
        </mxCell>
        <mxCell id="nAr13E7f8VJQAf8utLOB-236" value="&lt;font style=&quot;font-size: 36px;&quot;&gt;Dean&#39;s Office&lt;/font&gt;" style="rounded=0;whiteSpace=wrap;html=1;rotation=-90;fillColor=#EDEDED;" vertex="1" parent="1">
          <mxGeometry x="-1655" y="1465" width="320" height="190" as="geometry" />
        </mxCell>
        <mxCell id="nAr13E7f8VJQAf8utLOB-243" value="&lt;font style=&quot;font-size: 14px;&quot;&gt;Automate Workflows&lt;/font&gt;" style="shape=ext;rounded=1;html=1;whiteSpace=wrap;" vertex="1" parent="1">
          <mxGeometry x="400" y="1525" width="140" height="70" as="geometry" />
        </mxCell>
        <mxCell id="nAr13E7f8VJQAf8utLOB-248" style="edgeStyle=orthogonalEdgeStyle;rounded=0;orthogonalLoop=1;jettySize=auto;html=1;exitX=1;exitY=0.5;exitDx=0;exitDy=0;entryX=0;entryY=0.5;entryDx=0;entryDy=0;" edge="1" parent="1" source="nAr13E7f8VJQAf8utLOB-245" target="nAr13E7f8VJQAf8utLOB-246">
          <mxGeometry relative="1" as="geometry" />
        </mxCell>
        <mxCell id="nAr13E7f8VJQAf8utLOB-245" value="&lt;font style=&quot;font-size: 14px;&quot;&gt;Monitor Extracurricular Activities&lt;/font&gt;" style="shape=ext;rounded=1;html=1;whiteSpace=wrap;" vertex="1" parent="1">
          <mxGeometry x="-30" y="1525" width="140" height="70" as="geometry" />
        </mxCell>
        <mxCell id="nAr13E7f8VJQAf8utLOB-249" style="edgeStyle=orthogonalEdgeStyle;rounded=0;orthogonalLoop=1;jettySize=auto;html=1;exitX=1;exitY=0.5;exitDx=0;exitDy=0;entryX=0;entryY=0.5;entryDx=0;entryDy=0;" edge="1" parent="1" source="nAr13E7f8VJQAf8utLOB-246" target="nAr13E7f8VJQAf8utLOB-243">
          <mxGeometry relative="1" as="geometry" />
        </mxCell>
        <mxCell id="nAr13E7f8VJQAf8utLOB-246" value="&lt;font style=&quot;font-size: 14px;&quot;&gt;Handle Complaints and Requests&lt;/font&gt;" style="shape=ext;rounded=1;html=1;whiteSpace=wrap;" vertex="1" parent="1">
          <mxGeometry x="180" y="1525" width="140" height="70" as="geometry" />
        </mxCell>
        <mxCell id="nAr13E7f8VJQAf8utLOB-251" value="" style="endArrow=none;dashed=1;html=1;dashPattern=1 3;strokeWidth=2;rounded=0;entryX=0.5;entryY=1;entryDx=0;entryDy=0;exitX=0.5;exitY=0;exitDx=0;exitDy=0;" edge="1" parent="1" source="nAr13E7f8VJQAf8utLOB-243" target="nAr13E7f8VJQAf8utLOB-34">
          <mxGeometry width="50" height="50" relative="1" as="geometry">
            <mxPoint x="340" y="1370" as="sourcePoint" />
            <mxPoint x="390" y="1320" as="targetPoint" />
          </mxGeometry>
        </mxCell>
        <mxCell id="nAr13E7f8VJQAf8utLOB-252" value="" style="endArrow=none;dashed=1;html=1;dashPattern=1 3;strokeWidth=2;rounded=0;entryX=0.5;entryY=1;entryDx=0;entryDy=0;exitX=0.5;exitY=0;exitDx=0;exitDy=0;" edge="1" parent="1">
          <mxGeometry width="50" height="50" relative="1" as="geometry">
            <mxPoint x="249.5" y="1525" as="sourcePoint" />
            <mxPoint x="249.5" y="315" as="targetPoint" />
          </mxGeometry>
        </mxCell>
        <mxCell id="nAr13E7f8VJQAf8utLOB-253" value="" style="endArrow=none;dashed=1;html=1;dashPattern=1 3;strokeWidth=2;rounded=0;entryX=0.5;entryY=1;entryDx=0;entryDy=0;exitX=0.5;exitY=0;exitDx=0;exitDy=0;" edge="1" parent="1">
          <mxGeometry width="50" height="50" relative="1" as="geometry">
            <mxPoint x="39.5" y="1525" as="sourcePoint" />
            <mxPoint x="39.5" y="315" as="targetPoint" />
          </mxGeometry>
        </mxCell>
        <mxCell id="nAr13E7f8VJQAf8utLOB-254" value="" style="endArrow=classic;html=1;rounded=0;entryX=0.5;entryY=0;entryDx=0;entryDy=0;" edge="1" parent="1" target="nAr13E7f8VJQAf8utLOB-243">
          <mxGeometry width="50" height="50" relative="1" as="geometry">
            <mxPoint x="470" y="1520" as="sourcePoint" />
            <mxPoint x="390" y="920" as="targetPoint" />
          </mxGeometry>
        </mxCell>
        <mxCell id="nAr13E7f8VJQAf8utLOB-258" value="" style="endArrow=classic;html=1;rounded=0;entryX=0.5;entryY=0;entryDx=0;entryDy=0;" edge="1" parent="1">
          <mxGeometry width="50" height="50" relative="1" as="geometry">
            <mxPoint x="249.33" y="1520" as="sourcePoint" />
            <mxPoint x="249.33" y="1525" as="targetPoint" />
            <Array as="points" />
          </mxGeometry>
        </mxCell>
        <mxCell id="nAr13E7f8VJQAf8utLOB-260" value="" style="endArrow=classic;html=1;rounded=0;entryX=0.5;entryY=0;entryDx=0;entryDy=0;" edge="1" parent="1">
          <mxGeometry width="50" height="50" relative="1" as="geometry">
            <mxPoint x="40" y="1520" as="sourcePoint" />
            <mxPoint x="40.23000000000005" y="1525" as="targetPoint" />
            <Array as="points" />
          </mxGeometry>
        </mxCell>
        <mxCell id="nAr13E7f8VJQAf8utLOB-261" value="" style="endArrow=none;dashed=1;html=1;dashPattern=1 3;strokeWidth=2;rounded=0;entryX=0.429;entryY=1;entryDx=0;entryDy=0;exitX=0.5;exitY=0;exitDx=0;exitDy=0;entryPerimeter=0;" edge="1" parent="1" source="nAr13E7f8VJQAf8utLOB-227" target="nAr13E7f8VJQAf8utLOB-30">
          <mxGeometry width="50" height="50" relative="1" as="geometry">
            <mxPoint x="-210" y="1525" as="sourcePoint" />
            <mxPoint x="-210" y="315" as="targetPoint" />
          </mxGeometry>
        </mxCell>
        <mxCell id="nAr13E7f8VJQAf8utLOB-271" value="" style="endArrow=classic;html=1;rounded=0;" edge="1" parent="1">
          <mxGeometry width="50" height="50" relative="1" as="geometry">
            <mxPoint x="-190" y="1200" as="sourcePoint" />
            <mxPoint x="-189.73000000000002" y="1205" as="targetPoint" />
          </mxGeometry>
        </mxCell>
        <mxCell id="nAr13E7f8VJQAf8utLOB-272" value="" style="endArrow=none;dashed=1;html=1;rounded=0;entryX=0.5;entryY=1;entryDx=0;entryDy=0;exitX=0.5;exitY=0;exitDx=0;exitDy=0;" edge="1" parent="1" source="nAr13E7f8VJQAf8utLOB-201" target="nAr13E7f8VJQAf8utLOB-18">
          <mxGeometry width="50" height="50" relative="1" as="geometry">
            <mxPoint x="-1190" y="470" as="sourcePoint" />
            <mxPoint x="-1140" y="420" as="targetPoint" />
          </mxGeometry>
        </mxCell>
        <mxCell id="nAr13E7f8VJQAf8utLOB-273" value="" style="endArrow=none;dashed=1;html=1;rounded=0;entryX=0.5;entryY=1;entryDx=0;entryDy=0;" edge="1" parent="1" target="nAr13E7f8VJQAf8utLOB-23">
          <mxGeometry width="50" height="50" relative="1" as="geometry">
            <mxPoint x="-752" y="760" as="sourcePoint" />
            <mxPoint x="-752.87" y="315" as="targetPoint" />
          </mxGeometry>
        </mxCell>
        <mxCell id="nAr13E7f8VJQAf8utLOB-275" value="" style="endArrow=classic;html=1;rounded=0;entryX=0.5;entryY=0;entryDx=0;entryDy=0;" edge="1" parent="1" target="nAr13E7f8VJQAf8utLOB-201">
          <mxGeometry width="50" height="50" relative="1" as="geometry">
            <mxPoint x="-1090" y="490" as="sourcePoint" />
            <mxPoint x="-1140" y="420" as="targetPoint" />
          </mxGeometry>
        </mxCell>
        <mxCell id="nAr13E7f8VJQAf8utLOB-278" value="" style="endArrow=classic;html=1;rounded=0;entryX=0.5;entryY=1;entryDx=0;entryDy=0;" edge="1" parent="1" target="nAr13E7f8VJQAf8utLOB-23">
          <mxGeometry width="50" height="50" relative="1" as="geometry">
            <mxPoint x="-752" y="310" as="sourcePoint" />
            <mxPoint x="-670" y="240" as="targetPoint" />
          </mxGeometry>
        </mxCell>
        <mxCell id="nAr13E7f8VJQAf8utLOB-280" value="" style="endArrow=none;dashed=1;html=1;rounded=0;entryX=0.701;entryY=1.017;entryDx=0;entryDy=0;entryPerimeter=0;" edge="1" parent="1" target="nAr13E7f8VJQAf8utLOB-28">
          <mxGeometry width="50" height="50" relative="1" as="geometry">
            <mxPoint x="-540" y="1200" as="sourcePoint" />
            <mxPoint x="-540" y="323" as="targetPoint" />
          </mxGeometry>
        </mxCell>
        <mxCell id="nAr13E7f8VJQAf8utLOB-281" value="" style="endArrow=classic;html=1;rounded=0;" edge="1" parent="1">
          <mxGeometry width="50" height="50" relative="1" as="geometry">
            <mxPoint x="-540" y="1200" as="sourcePoint" />
            <mxPoint x="-540" y="1206" as="targetPoint" />
          </mxGeometry>
        </mxCell>
        <mxCell id="nAr13E7f8VJQAf8utLOB-282" value="" style="endArrow=none;dashed=1;html=1;rounded=0;entryX=0.5;entryY=1;entryDx=0;entryDy=0;exitX=0.57;exitY=0.026;exitDx=0;exitDy=0;exitPerimeter=0;" edge="1" parent="1" source="nAr13E7f8VJQAf8utLOB-215">
          <mxGeometry width="50" height="50" relative="1" as="geometry">
            <mxPoint x="-384" y="770" as="sourcePoint" />
            <mxPoint x="-384" y="315" as="targetPoint" />
          </mxGeometry>
        </mxCell>
        <mxCell id="nAr13E7f8VJQAf8utLOB-284" value="" style="endArrow=classic;html=1;rounded=0;entryX=0.574;entryY=0.006;entryDx=0;entryDy=0;entryPerimeter=0;" edge="1" parent="1" target="nAr13E7f8VJQAf8utLOB-215">
          <mxGeometry width="50" height="50" relative="1" as="geometry">
            <mxPoint x="-380" y="850" as="sourcePoint" />
            <mxPoint x="-330" y="790" as="targetPoint" />
          </mxGeometry>
        </mxCell>
        <mxCell id="nAr13E7f8VJQAf8utLOB-287" value="" style="endArrow=none;dashed=1;html=1;dashPattern=1 3;strokeWidth=2;rounded=0;exitX=0.539;exitY=0.006;exitDx=0;exitDy=0;exitPerimeter=0;" edge="1" parent="1" source="nAr13E7f8VJQAf8utLOB-4">
          <mxGeometry width="50" height="50" relative="1" as="geometry">
            <mxPoint x="-329.5" y="741.72" as="sourcePoint" />
            <mxPoint x="-330" y="575" as="targetPoint" />
          </mxGeometry>
        </mxCell>
        <mxCell id="nAr13E7f8VJQAf8utLOB-289" value="&lt;span style=&quot;font-weight: normal;&quot;&gt;&lt;font style=&quot;font-size: 12px;&quot;&gt;Yes&lt;/font&gt;&lt;/span&gt;" style="text;strokeColor=none;fillColor=none;html=1;fontSize=24;fontStyle=1;verticalAlign=middle;align=center;" vertex="1" parent="1">
          <mxGeometry x="-370" y="1205" width="100" height="40" as="geometry" />
        </mxCell>
        <mxCell id="nAr13E7f8VJQAf8utLOB-290" value="&lt;span style=&quot;font-weight: normal;&quot;&gt;&lt;font style=&quot;font-size: 12px;&quot;&gt;Yes&lt;/font&gt;&lt;/span&gt;" style="text;strokeColor=none;fillColor=none;html=1;fontSize=24;fontStyle=1;verticalAlign=middle;align=center;" vertex="1" parent="1">
          <mxGeometry x="-910" y="505" width="100" height="40" as="geometry" />
        </mxCell>
        <mxCell id="nAr13E7f8VJQAf8utLOB-291" value="&lt;span style=&quot;font-weight: normal;&quot;&gt;&lt;font style=&quot;font-size: 12px;&quot;&gt;No&lt;/font&gt;&lt;/span&gt;" style="text;strokeColor=none;fillColor=none;html=1;fontSize=24;fontStyle=1;verticalAlign=middle;align=center;" vertex="1" parent="1">
          <mxGeometry x="-960" y="575" width="100" height="40" as="geometry" />
        </mxCell>
        <mxCell id="nAr13E7f8VJQAf8utLOB-294" value="&lt;span style=&quot;font-weight: normal;&quot;&gt;&lt;font style=&quot;font-size: 12px;&quot;&gt;No&lt;/font&gt;&lt;/span&gt;" style="text;strokeColor=none;fillColor=none;html=1;fontSize=24;fontStyle=1;verticalAlign=middle;align=center;" vertex="1" parent="1">
          <mxGeometry x="-150" y="860" width="100" height="40" as="geometry" />
        </mxCell>
        <mxCell id="nAr13E7f8VJQAf8utLOB-297" value="&lt;span style=&quot;font-size: 12px; font-weight: 400;&quot;&gt;Yes&lt;/span&gt;" style="text;strokeColor=none;fillColor=none;html=1;fontSize=24;fontStyle=1;verticalAlign=middle;align=center;" vertex="1" parent="1">
          <mxGeometry x="-170" y="920" width="100" height="40" as="geometry" />
        </mxCell>
        <mxCell id="nAr13E7f8VJQAf8utLOB-298" value="&lt;span style=&quot;font-weight: normal;&quot;&gt;&lt;font style=&quot;font-size: 12px;&quot;&gt;No&lt;/font&gt;&lt;/span&gt;" style="text;strokeColor=none;fillColor=none;html=1;fontSize=24;fontStyle=1;verticalAlign=middle;align=center;" vertex="1" parent="1">
          <mxGeometry x="-540" y="1295" width="100" height="40" as="geometry" />
        </mxCell>
      </root>
    </mxGraphModel>
  </diagram>
</mxfile>
